<svg width="74" height="25" viewBox="0 0 74 25" fill="none" xmlns="http://www.w3.org/2000/svg">
<path d="M5.40576 19.9032C4.27745 19.9032 3.30071 19.6908 2.47553 19.2661C1.6672 18.8413 1.05252 18.2892 0.631514 17.6096C0.210505 16.913 0 16.1825 0 15.4179V15.265H3.41017V15.4179C3.41017 15.8767 3.587 16.2844 3.94064 16.6412C4.29429 16.998 4.80792 17.1764 5.48154 17.1764C6.03727 17.1764 6.48354 17.0489 6.82035 16.7941C7.17399 16.5223 7.35082 16.157 7.35082 15.6983C7.35082 15.2905 7.19925 14.9677 6.89613 14.7299C6.593 14.492 6.21409 14.3391 5.7594 14.2712L4.24377 13.9653C3.25019 13.7785 2.34923 13.3792 1.54089 12.7676C0.732556 12.156 0.328387 11.23 0.328387 9.98981C0.328387 8.7156 0.791497 7.72171 1.71772 7.00816C2.64394 6.27761 3.83118 5.91234 5.27945 5.91234C6.3404 5.91234 7.2582 6.10771 8.03285 6.49847C8.80751 6.88923 9.39692 7.40741 9.80109 8.05301C10.2053 8.68162 10.4073 9.3612 10.4073 10.0917V10.1937H6.99717V10.1172C6.99717 9.70948 6.84561 9.33571 6.54248 8.99592C6.23935 8.63914 5.77624 8.46076 5.15315 8.46076C4.6311 8.46076 4.21009 8.59667 3.89012 8.8685C3.57016 9.14033 3.41017 9.49711 3.41017 9.93884C3.41017 10.3466 3.57016 10.6694 3.89012 10.9072C4.22693 11.1451 4.63952 11.3065 5.12789 11.3914L6.79509 11.7227C7.87287 11.9606 8.78225 12.3938 9.52322 13.0224C10.2642 13.634 10.6347 14.509 10.6347 15.6473C10.6347 16.4968 10.4073 17.2443 9.95265 17.8899C9.49796 18.5355 8.86645 19.0367 8.05811 19.3935C7.26662 19.7333 6.3825 19.9032 5.40576 19.9032Z" fill="white"/>
<path d="M19.8331 19.9032C18.7048 19.9032 17.8207 19.6398 17.1807 19.1131C16.5408 18.5865 16.0693 18.0088 15.7661 17.3802H15.564V25H12.0528V6.24363H15.564V8.33333H15.7661C16.0356 7.75569 16.4903 7.21203 17.1302 6.70234C17.7701 6.17567 18.6627 5.91234 19.8078 5.91234C21.5087 5.91234 22.8138 6.54944 23.7232 7.82365C24.6494 9.09786 25.1125 10.8053 25.1125 12.946C25.1125 15.0357 24.6494 16.7176 23.7232 17.9918C22.8138 19.2661 21.5171 19.9032 19.8331 19.9032ZM18.5701 17.0999C19.5805 17.0999 20.3299 16.6922 20.8182 15.8767C21.3235 15.0612 21.5761 14.0758 21.5761 12.9205C21.5761 11.7992 21.3235 10.8393 20.8182 10.0408C20.3299 9.22528 19.5805 8.81753 18.5701 8.81753C17.5765 8.81753 16.8271 9.22528 16.3219 10.0408C15.8167 10.8563 15.564 11.8247 15.564 12.946C15.564 14.0843 15.8167 15.0612 16.3219 15.8767C16.8271 16.6922 17.5765 17.0999 18.5701 17.0999Z" fill="white"/>
<path d="M32.7947 19.9032C31.3969 19.9032 30.2181 19.5889 29.2582 18.9602C28.3152 18.3146 27.6079 17.4652 27.1363 16.4118C26.6648 15.3585 26.429 14.2032 26.429 12.946C26.429 11.6888 26.6564 10.5335 27.1111 9.48012C27.5826 8.40979 28.2983 7.55182 29.2582 6.90622C30.2181 6.26062 31.3969 5.93782 32.7947 5.93782C34.1924 5.93782 35.3713 6.26062 36.3312 6.90622C37.2911 7.53483 38.0068 8.37581 38.4783 9.42915C38.9498 10.4825 39.1856 11.6378 39.1856 12.895C39.1856 14.1522 38.9498 15.316 38.4783 16.3863C38.0068 17.4397 37.2911 18.2892 36.3312 18.9348C35.3713 19.5804 34.1924 19.9032 32.7947 19.9032ZM32.7947 17.0489C33.7714 17.0489 34.504 16.6582 34.9924 15.8767C35.4976 15.0782 35.7502 14.0843 35.7502 12.895C35.7502 11.7057 35.4976 10.7288 34.9924 9.96432C34.504 9.18281 33.7714 8.79205 32.7947 8.79205C31.818 8.79205 31.0854 9.18281 30.597 9.96432C30.1087 10.7288 29.8645 11.7057 29.8645 12.895C29.8645 14.0843 30.1087 15.0782 30.597 15.8767C31.1022 16.6582 31.8348 17.0489 32.7947 17.0489Z" fill="white"/>
<path d="M40.8759 6.24363H44.3366V8.3843H44.5134C44.7323 7.78967 45.1365 7.28848 45.7259 6.88073C46.3153 6.456 47.0732 6.24363 47.9994 6.24363C48.353 6.24363 48.6561 6.27761 48.9088 6.34557L48.7572 9.58206C48.3362 9.46313 47.8899 9.40367 47.4184 9.40367C46.3743 9.40367 45.5996 9.684 45.0944 10.2446C44.5892 10.7883 44.3366 11.6972 44.3366 12.9715V19.6993H40.8759V6.24363Z" fill="white"/>
<path d="M54.661 8.99592V14.9847C54.661 15.5793 54.6863 16.0211 54.7368 16.3099C54.8042 16.5987 54.9726 16.8281 55.242 16.998C55.5115 17.1679 55.9493 17.2528 56.5556 17.2528C56.9092 17.2528 57.2713 17.2188 57.6418 17.1509V19.5974C57.4565 19.6313 57.1197 19.6738 56.6314 19.7248C56.1598 19.7757 55.6967 19.8012 55.242 19.8012C54.0127 19.8012 53.0949 19.6228 52.4886 19.2661C51.8992 18.8923 51.5287 18.4336 51.3772 17.8899C51.2256 17.3293 51.1498 16.6157 51.1498 15.7492V8.99592H48.9269V6.24363H51.1751V1.86035H54.661V6.24363H57.6418V8.99592H54.661Z" fill="white"/>
<path d="M59.8116 6.24363H63.2976V19.6993H59.8116V6.24363ZM61.5294 3.92457C60.9736 3.92457 60.5105 3.73768 60.14 3.36391C59.7695 2.97316 59.5843 2.50595 59.5843 1.96228C59.5843 1.40163 59.7695 0.934421 60.14 0.560653C60.5105 0.186884 60.9736 0 61.5294 0C62.0851 0 62.5482 0.195379 62.9187 0.586137C63.2892 0.959905 63.4744 1.41862 63.4744 1.96228C63.4744 2.50595 63.2892 2.97316 62.9187 3.36391C62.5482 3.73768 62.0851 3.92457 61.5294 3.92457Z" fill="white"/>
<path d="M70.7035 8.99592V14.9847C70.7035 15.5793 70.7287 16.0211 70.7793 16.3099C70.8466 16.5987 71.015 16.8281 71.2845 16.998C71.5539 17.1679 71.9918 17.2528 72.598 17.2528C72.9517 17.2528 73.3137 17.2188 73.6842 17.1509V19.5974C73.499 19.6313 73.1622 19.6738 72.6738 19.7248C72.2023 19.7757 71.7392 19.8012 71.2845 19.8012C70.0551 19.8012 69.1373 19.6228 68.5311 19.2661C67.9417 18.8923 67.5712 18.4336 67.4196 17.8899C67.268 17.3293 67.1923 16.6157 67.1923 15.7492V8.99592H64.9693V6.24363H67.2175V1.86035H70.7035V6.24363H73.6842V8.99592H70.7035Z" fill="white"/>
</svg>
