<svg width="25" height="25" viewBox="0 0 25 25" fill="none" xmlns="http://www.w3.org/2000/svg">
<path fill-rule="evenodd" clip-rule="evenodd" d="M24.8196 14.6278C24.9382 13.9363 25 13.2253 25 12.5C25 5.59644 19.4036 0 12.5 0C8.31396 0 4.6085 2.05766 2.33991 5.21671C3.60762 5.04137 4.86107 5.12264 6.10323 5.43808C9.23662 6.23379 11.9017 8.4669 14.0623 10.2857L14.2343 10.4306C16.5219 12.357 18.38 13.9217 20.3729 14.6628C21.6644 15.1431 23.0789 15.2956 24.8196 14.6278ZM22.443 20.0765C20.1592 23.0691 16.5551 25 12.5 25C5.59644 25 0 19.4036 0 12.5C0 12.1428 0.0149802 11.7892 0.0443467 11.4396C2.10785 10.028 3.63023 9.96877 4.87256 10.2843C6.70365 10.7493 8.50642 12.1444 10.8421 14.1108C10.9808 14.2275 11.1215 14.3464 11.2643 14.4671L11.2643 14.4671C13.3148 16.2 15.7925 18.294 18.6301 19.3493C19.8564 19.8053 21.1271 20.064 22.443 20.0765Z" fill="#3CDDF3"/>
</svg>
